<?xml version="1.0" standalone="no"?>
<!DOCTYPE svg PUBLIC "-//W3C//DTD SVG 20010904//EN"
 "http://www.w3.org/TR/2001/REC-SVG-20010904/DTD/svg10.dtd">
<svg version="1.0" xmlns="http://www.w3.org/2000/svg"
 width="345.000000pt" height="345.000000pt" viewBox="0 0 345.000000 345.000000"
 preserveAspectRatio="xMidYMid meet">
<metadata>
Created by potrace 1.14, written by Peter Selinger 2001-2017
</metadata>
<g transform="translate(0.000000,345.000000) scale(0.100000,-0.100000)"
fill="#000000" stroke="none">
<path d="M1559 3446 c-2 -2 -32 -7 -66 -11 -83 -9 -101 -12 -148 -25 -22 -6
-51 -13 -64 -16 -102 -22 -412 -155 -451 -194 -3 -3 -21 -14 -40 -24 -80 -44
-277 -216 -374 -326 -67 -77 -196 -267 -196 -289 0 -5 -3 -11 -7 -13 -9 -3
-93 -175 -97 -198 -2 -8 -6 -24 -10 -35 -18 -48 -27 -75 -51 -164 -14 -52 -28
-112 -30 -135 -3 -23 -8 -66 -12 -96 -21 -155 -4 -461 33 -586 8 -28 16 -60
19 -72 11 -57 73 -218 119 -306 89 -173 112 -210 153 -252 7 -7 13 -16 13 -21
0 -5 8 -16 17 -25 10 -9 36 -38 58 -64 87 -107 264 -260 390 -336 143 -86 365
-182 470 -202 40 -8 80 -19 90 -25 6 -3 19 -6 30 -7 11 -1 47 -5 80 -9 79 -11
382 -12 465 -1 36 4 76 9 90 11 14 2 45 9 70 16 25 7 50 13 55 15 117 27 304
104 424 176 34 21 66 38 70 38 3 0 25 15 47 33 23 18 59 46 80 63 108 84 203
176 262 254 15 19 29 37 32 40 4 3 19 23 35 45 17 22 32 42 35 45 10 10 70
111 70 119 0 4 6 13 13 20 6 6 12 15 12 19 1 4 22 49 47 99 26 51 45 93 43 93
-2 0 6 26 17 57 11 32 22 65 24 73 2 8 13 49 25 90 11 41 22 89 24 105 2 17 7
59 11 95 10 78 10 335 1 405 -4 28 -9 72 -12 98 -3 27 -7 53 -11 58 -5 8 -9
23 -20 78 -3 14 -7 28 -10 33 -3 4 -7 16 -9 26 -28 145 -185 448 -300 578 -5
7 -26 31 -45 55 -74 93 -283 277 -371 327 -19 10 -56 32 -84 48 -152 89 -420
186 -550 200 -21 2 -51 7 -65 10 -28 7 -395 15 -401 10z m282 -1486 c122 -61
176 -206 124 -335 -43 -104 -127 -160 -240 -159 -78 1 -132 22 -184 73 -124
121 -93 337 60 417 72 38 169 39 240 4z"/>
</g>
</svg>
